# xmcd
#
# Track frame offsets: 
#        150
#        19658
#        38867
#        57982
#        77075
#        96489
#        115821
#
# Disc length: 1810 seconds
#
# Revision: 0
# Processed by: cddbd v1.5.1PL0 Copyright (c) Steve Scherf et al.
# Submitted via: ExactAudioCopy v0.95a5
#
DISCID=54071007
DTITLE=phat sk8trax - Boogie Back Rap
DYEAR=2004
DGENRE=Hip-Hop
TTITLE0=Ol' School (Crazy Legs Mix)
TTITLE1=Nu school (Funk Box Mix)
TTITLE2=Acoustique (Fresh Funk Mix)
TTITLE3=Ol' School (club - karaoke)
TTITLE4=Nu School (Club - karaoke)
TTITLE5=Acoustique (club/ karakoe)
TTITLE6=Back In Duh Day (Raw Funk Mix)
EXTD=
EXTT0=
EXTT1=
EXTT2=
EXTT3=
EXTT4=
EXTT5=
EXTT6=
PLAYORDER=
